<?xml version="1.0" encoding="utf-8"?>
<!-- Generator: Adobe Illustrator 22.1.0, SVG Export Plug-In . SVG Version: 6.00 Build 0)  -->
<svg version="1.1" id="main_logo" xmlns="http://www.w3.org/2000/svg" xmlns:xlink="http://www.w3.org/1999/xlink" x="0px" y="0px"
	 width="187px" height="87.2px" viewBox="0 0 187 87.2" style="enable-background:new 0 0 187 87.2;" xml:space="preserve">
<style type="text/css">
	.st0{clip-path:url(#SVGID_2_);fill:#A39161;}
	.st1{fill:#A39161;}
	.st2{clip-path:url(#SVGID_4_);fill:#A39161;}
	.st3{clip-path:url(#SVGID_6_);fill:#A39161;}
	.st4{clip-path:url(#SVGID_8_);fill:#A39161;}
	.st5{fill:none;}
	.st6{fill:#133156;}
	.st7{font-family:'Amarillo';}
	.st8{font-size:15px;}
</style>
<g>
	<g>
		<defs>
			<rect id="SVGID_1_" y="9.3" width="187" height="77.8"/>
		</defs>
		<clipPath id="SVGID_2_">
			<use xlink:href="#SVGID_1_"  style="overflow:visible;"/>
		</clipPath>
		<path class="st0" d="M44.5,77.3h2.1c1.3,0,1.9,0.9,1.9,2.4c0,1.2-0.5,2.1-1.3,2.2V82c1,0.2,1.4,1.2,1.4,2.3c0,2-0.8,2.7-1.9,2.7
			h-2.2V77.3z M46.3,81.6c0.7,0,1.3-0.6,1.3-1.8c0-1.2-0.5-1.7-1.2-1.7h-1.1v3.6L46.3,81.6L46.3,81.6z M46.5,86.2
			c0.8,0,1.2-0.7,1.2-2s-0.6-1.9-1.4-1.9h-0.9v3.8L46.5,86.2L46.5,86.2z"/>
	</g>
</g>
<path class="st1" d="M53.5,77.3V87h3.7v-0.8h-2.8v-3.9h2.2v-0.8h-2.2v-3.4h2.7v-0.8H53.5z M64.1,78.3l0.9,4.8h-1.9L64.1,78.3z
	 M63.5,77.3l-2,9.7h0.9l0.6-3.1h2.2l0.6,3.1h0.9l-2-9.7H63.5z"/>
<g>
	<g>
		<defs>
			<rect id="SVGID_3_" y="9.3" width="187" height="77.8"/>
		</defs>
		<clipPath id="SVGID_4_">
			<use xlink:href="#SVGID_3_"  style="overflow:visible;"/>
		</clipPath>
		<path class="st2" d="M70.7,85v-5.7c0-1.3,0.9-2.1,2.3-2.1c1.3,0,2.1,0.8,2.1,1.9v1.1h-0.8v-0.9c0-0.7-0.4-1.3-1.3-1.3
			c-1,0-1.3,0.6-1.3,1.4V85c0,0.9,0.5,1.4,1.3,1.4s1.3-0.5,1.3-1.2v-1h0.8v1c0,1.2-0.8,2-2.1,2C71.6,87.1,70.7,86.3,70.7,85"/>
	</g>
</g>
<path class="st1" d="M83,77.3v4.3h-2.6v-4.3h-0.9V87h0.9v-4.6H83V87h0.9v-9.7H83z"/>
<g>
	<g>
		<g>
			<defs>
				<rect id="SVGID_5_" y="9.3" width="187" height="77.8"/>
			</defs>
			<clipPath id="SVGID_6_">
				<use xlink:href="#SVGID_5_"  style="overflow:visible;"/>
			</clipPath>
			<path class="st3" d="M93.4,77.3h2c1.5,0,2.2,1,2.2,2.6c0,1.4-0.5,2.3-1.3,2.5l1.4,4.5h-1l-1.3-4.3h-1.1v4.3h-0.9
				C93.4,86.9,93.4,77.3,93.4,77.3z M95.4,81.9c0.9,0,1.3-0.7,1.3-1.9c0-1-0.3-1.9-1.3-1.9h-1v3.8H95.4z"/>
		</g>
	</g>
</g>
<path class="st1" d="M102.2,77.3V87h3.7v-0.8h-2.7v-3.9h2.1v-0.8h-2.1v-3.4h2.7v-0.8H102.2z"/>
<g>
	<g>
		<g>
			<defs>
				<rect id="SVGID_7_" y="9.3" width="187" height="77.8"/>
			</defs>
			<clipPath id="SVGID_8_">
				<use xlink:href="#SVGID_7_"  style="overflow:visible;"/>
			</clipPath>
			<path class="st4" d="M109.9,84.8h0.9c0.1,1,0.5,1.6,1.3,1.6c0.9,0,1.1-0.8,1.1-1.5s-0.3-1.3-0.8-1.9l-1.2-1.4
				c-0.7-0.7-1.1-1.5-1.1-2.3c0-1.2,0.7-2.1,2-2.1c1,0,1.8,0.6,1.9,2.1h-0.8c-0.1-1-0.5-1.4-1.1-1.4c-0.7,0-1.1,0.4-1.1,1.3
				c0,0.6,0.4,1.2,1,1.8l1,1.2c0.7,0.8,1.1,1.6,1.1,2.6c0,1.3-0.7,2.3-2,2.3C110.7,87.1,110,86.3,109.9,84.8 M118.3,84.9v-5.6
				c0-1.4,1-2.2,2.3-2.2s2.2,0.7,2.2,2.1v5.6c0,1.5-1,2.3-2.3,2.3S118.3,86.4,118.3,84.9 M121.9,84.9v-5.6c0-0.8-0.5-1.3-1.3-1.3
				c-0.9,0-1.3,0.6-1.3,1.3v5.6c0,0.7,0.4,1.4,1.3,1.4C121.6,86.3,121.9,85.6,121.9,84.9 M127.5,77.3h2c1.5,0,2.2,1,2.2,2.6
				c0,1.4-0.5,2.3-1.3,2.5l1.4,4.5h-1l-1.3-4.3h-1.1v4.3h-0.9L127.5,77.3L127.5,77.3z M129.5,81.9c0.9,0,1.3-0.7,1.3-1.9
				c0-1-0.3-1.9-1.3-1.9h-1v3.8H129.5z"/>
		</g>
	</g>
</g>
<path class="st1" d="M135.6,77.3v0.8h1.9V87h0.9v-8.9h1.8v-0.8H135.6z"/>
<g>
	<g>
		<g>
			<defs>
				<rect id="SVGID_9_" y="9.3" width="187" height="77.8"/>
			</defs>
			<clipPath id="SVGID_10_">
				<use xlink:href="#SVGID_9_"  style="overflow:visible;"/>
			</clipPath>
		</g>
	</g>
</g>
<rect x="45.8" y="45.6" class="st5" width="87.5" height="23"/>
<text transform="matrix(1 0 0 1 45.8443 62.4707)" class="st6 st7 st8">Nautilus</text>
<path class="st1" d="M106.5,15.2l-6.2,5.7l3.4,0.2c-1.6,8.6-8.9,7.2-8.9,7.2l-1.3-0.6V11.2h7.1V8.8h-7.1V7.9
	c1.3-0.7,2.2-2.1,2.2-3.7c0-2.3-1.9-4.2-4.2-4.2c-2.3,0-4.2,1.9-4.2,4.2c0,1.6,0.9,3,2.2,3.7v0.9h-6.2v2.4h6.2v16.7l-1,0.5
	c0,0-7.2,1.4-8.9-7.2l3.4-0.2l-6.2-5.7l-2.2,8.5l2.4-1.7c0,0,2,9,9.2,11.2c3.9,1.2,5,2.6,5.3,3.4l0.1,0.3l0,0l0,0l0,0
	c0.1-0.8,1.1-2.3,5.4-3.6c7.2-2.2,9.2-11.2,9.2-11.2l2.4,1.7L106.5,15.2z M91.6,2.2c1.1,0,2,0.9,2,2s-0.9,2-2,2s-2-0.9-2-2
	S90.4,2.2,91.6,2.2z"/>
</svg>
