<?xml version="1.0" encoding="utf-8"?>
<!-- Generator: Adobe Illustrator 22.0.0, SVG Export Plug-In . SVG Version: 6.00 Build 0)  -->
<svg version="1.1" id="main_logo" xmlns="http://www.w3.org/2000/svg" xmlns:xlink="http://www.w3.org/1999/xlink" x="0px" y="0px"
	 viewBox="0 0 187 77.8" style="enable-background:new 0 0 187 77.8;" xml:space="preserve">
<style type="text/css">
	.st0{clip-path:url(#SVGID_4_);fill:#A39161;}
	.st1{fill:#A39161;}
	.st2{clip-path:url(#SVGID_6_);fill:#A39161;}
	.st3{clip-path:url(#SVGID_8_);fill:#A39161;}
	.st4{clip-path:url(#SVGID_10_);fill:#A39161;}
	.st5{clip-path:url(#SVGID_12_);fill:#A39161;}
	.st6{fill:none;}
	.st7{fill:#133156;}
	.st8{font-family:'Amarillo';}
	.st9{font-size:15px;}
</style>
<g>
	<defs>
		<rect id="SVGID_1_" width="187" height="77.8"/>
	</defs>
	<clipPath id="SVGID_2_">
		<use xlink:href="#SVGID_1_"  style="overflow:visible;"/>
	</clipPath>
</g>
<g>
	<defs>
		<rect id="SVGID_3_" width="187" height="77.8"/>
	</defs>
	<clipPath id="SVGID_4_">
		<use xlink:href="#SVGID_3_"  style="overflow:visible;"/>
	</clipPath>
	<path class="st0" d="M44.5,68h2.1c1.3,0,1.9,0.9,1.9,2.4c0,1.2-0.5,2.1-1.3,2.2v0.1c1,0.2,1.4,1.2,1.4,2.3c0,2-0.8,2.7-1.9,2.7
		h-2.2V68z M46.3,72.3c0.7,0,1.3-0.6,1.3-1.8c0-1.2-0.5-1.7-1.2-1.7h-1.1v3.6L46.3,72.3L46.3,72.3z M46.5,76.9c0.8,0,1.2-0.7,1.2-2
		S47.1,73,46.3,73h-0.9v3.8L46.5,76.9L46.5,76.9z"/>
</g>
<path class="st1" d="M53.5,68v9.7h3.7v-0.8h-2.8V73h2.2v-0.8h-2.2v-3.4h2.7V68H53.5z M64.1,69l0.9,4.8h-1.9L64.1,69z M63.5,68
	l-2,9.7h0.9l0.6-3.1h2.2l0.6,3.1h0.9l-2-9.7C64.7,68,63.5,68,63.5,68z"/>
<g>
	<defs>
		<rect id="SVGID_5_" width="187" height="77.8"/>
	</defs>
	<clipPath id="SVGID_6_">
		<use xlink:href="#SVGID_5_"  style="overflow:visible;"/>
	</clipPath>
	<path class="st2" d="M70.7,75.7V70c0-1.3,0.9-2.1,2.3-2.1c1.3,0,2.1,0.8,2.1,1.9v1.1h-0.8V70c0-0.7-0.4-1.3-1.3-1.3
		c-1,0-1.3,0.6-1.3,1.4v5.6c0,0.9,0.5,1.4,1.3,1.4s1.3-0.5,1.3-1.2v-1h0.8v1c0,1.2-0.8,2-2.1,2C71.6,77.8,70.7,77,70.7,75.7"/>
</g>
<path class="st1" d="M83,68v4.3h-2.6V68h-0.9v9.7h0.9v-4.6H83v4.6h0.9V68H83z"/>
<g>
	<g>
		<defs>
			<rect id="SVGID_7_" width="187" height="77.8"/>
		</defs>
		<clipPath id="SVGID_8_">
			<use xlink:href="#SVGID_7_"  style="overflow:visible;"/>
		</clipPath>
		<path class="st3" d="M93.4,68h2c1.5,0,2.2,1,2.2,2.6c0,1.4-0.5,2.3-1.3,2.5l1.4,4.5h-1l-1.3-4.3h-1.1v4.3h-0.9
			C93.4,77.6,93.4,68,93.4,68z M95.4,72.6c0.9,0,1.3-0.7,1.3-1.9c0-1-0.3-1.9-1.3-1.9h-1v3.8H95.4z"/>
	</g>
</g>
<path class="st1" d="M102.2,68v9.7h3.7v-0.8h-2.7V73h2.1v-0.8h-2.1v-3.4h2.7V68H102.2z"/>
<g>
	<g>
		<defs>
			<rect id="SVGID_9_" width="187" height="77.8"/>
		</defs>
		<clipPath id="SVGID_10_">
			<use xlink:href="#SVGID_9_"  style="overflow:visible;"/>
		</clipPath>
		<path class="st4" d="M109.9,75.5h0.9c0.1,1,0.5,1.6,1.3,1.6c0.9,0,1.1-0.8,1.1-1.5s-0.3-1.3-0.8-1.9l-1.2-1.4
			c-0.7-0.7-1.1-1.5-1.1-2.3c0-1.2,0.7-2.1,2-2.1c1,0,1.8,0.6,1.9,2.1h-0.8c-0.1-1-0.5-1.4-1.1-1.4c-0.7,0-1.1,0.4-1.1,1.3
			c0,0.6,0.4,1.2,1,1.8l1,1.2c0.7,0.8,1.1,1.6,1.1,2.6c0,1.3-0.7,2.3-2,2.3C110.7,77.8,110,77,109.9,75.5 M118.3,75.6V70
			c0-1.4,1-2.2,2.3-2.2s2.2,0.7,2.2,2.1v5.6c0,1.5-1,2.3-2.3,2.3S118.3,77.1,118.3,75.6 M121.9,75.6V70c0-0.8-0.5-1.3-1.3-1.3
			c-0.9,0-1.3,0.6-1.3,1.3v5.6c0,0.7,0.4,1.4,1.3,1.4C121.6,77,121.9,76.3,121.9,75.6 M127.5,68h2c1.5,0,2.2,1,2.2,2.6
			c0,1.4-0.5,2.3-1.3,2.5l1.4,4.5h-1l-1.3-4.3h-1.1v4.3h-0.9L127.5,68L127.5,68z M129.5,72.6c0.9,0,1.3-0.7,1.3-1.9
			c0-1-0.3-1.9-1.3-1.9h-1v3.8H129.5z"/>
	</g>
</g>
<path class="st1" d="M135.6,68v0.8h1.9v8.9h0.9v-8.9h1.8V68H135.6z"/>
<g>
	<g>
		<defs>
			<rect id="SVGID_11_" width="187" height="77.8"/>
		</defs>
		<clipPath id="SVGID_12_">
			<use xlink:href="#SVGID_11_"  style="overflow:visible;"/>
		</clipPath>
		<path class="st5" d="M112,13.1c-0.2-0.3-1.2-0.4-2-0.4c-0.4,0-1,0-1.5,0.2c0.1-0.1,0.1-0.2,0.2-0.4c1.2-2.4,0.9-3.9,0.8-4.9
			c0-0.3-0.1-0.6-0.1-0.9V6.6l-0.1-0.1c-0.1-0.1-0.2-0.1-0.3-0.1c-0.6,0-2.3,0.6-3.5,1.8V7.5c-0.2-2.9-1.2-4.3-1.9-5.2
			c-0.2-0.3-0.4-0.6-0.5-0.8L103,1.4h-0.1c-0.3,0-1.2,0.9-1.8,1.9c-0.3,0.4-0.6,1.1-0.8,1.8c-0.1-0.3-0.3-0.5-0.5-0.8
			c-2-2.7-3.9-3.4-5.1-3.8c-0.4-0.1-0.8-0.3-1-0.4h-0.2c-0.2,0-0.3,0.2-0.4,0.7c-0.2,0.8-0.4,2.5,0.1,4.2c-0.2-0.1-0.5-0.3-0.8-0.4
			C90.8,4,89.3,3.7,88,3.7c-1,0-1.9,0.2-2.5,0.3c-0.5-0.1-0.9,0-1.2,0H84l-0.1,0.3c0,0.6,0.9,2.9,2.6,4.4h-0.4c-4,0.2-5.8,1.6-7,2.5
			c-0.4,0.3-0.8,0.6-1.1,0.7c-0.1,0-0.2,0.1-0.1,0.3c0.1,0.5,2.2,2.6,4.8,3.3c-0.5,0.2-1,0.5-1.5,0.9c-3.8,2.8-4.8,5.3-5.4,7
			c-0.2,0.6-0.4,1.1-0.7,1.5L75,25.2l0.1,0.1c0.2,0.4,2.1,0.8,3.8,0.8c1.9,0,5.3-0.4,7-3.3l0.1-0.1l-0.1-0.1c0,0-1.5-2.8-0.7-4.4
			c0.3-0.7,1-1.1,2.1-1.2c0.8-0.1,1.5-0.1,2.1,0.2c0.3,0.2,0.4,0.2,0.5,0.2h0.2l0.1-0.1c0.1-0.1,0-0.3,0-0.4S90,16.6,90,16.6
			c-0.5-0.4-1.3-1.2-3-1.5c0-0.3,0.4-2.9,2.4-3.2c1.2-0.1,2.1,0.3,2.4,0.8c0.1,0.2,0.2,0.4,0.4,0.4s0.3-0.2,0.3-0.3v-0.3
			c-0.1-0.4-0.4-1.4-1.7-2.5c0.3-0.5,1.1-1.9,2.7-1.8c1.4,0.1,2.1,1.4,2.1,1.9s0.5,0.4,0.5,0.3c0.1-0.1,0.1-0.3,0.1-0.3
			c-0.2-0.2,0-1.1-0.5-2.4C96,7.2,97,6.9,97.8,7.1c1.4,0.3,1.5,2.3,1.4,2.7c-0.1,0.5,0.4,0.3,0.4,0.3c0.3-0.3,1-0.9,1.2-2.1
			c0.7-0.5,2.3,0.4,2.5,1.3c0.1,0.4,0.2,1.2-0.5,1.8c-0.1,0.1-0.4,0.2-0.3,0.4c0,0.2,0.3,0.2,0.4,0.2s1.3-0.6,1.7-0.9
			c0.3-0.2,1.9,0.4,1.5,1.9c-0.5,1.8-2.3,1.3-2.3,1.6c-0.1,0.3,0.3,0.4,0.3,0.4c0.4,0.1,0.7,0.1,1,0.1c0.4,0,0.9-0.1,1.4-0.3
			c0.8,0.5,0.7,1.7,0.1,2.3c-0.3,0.2-1.5,0.3-1.8,0.2c-0.7-0.2-0.5,0.3-0.3,0.4c0.1,0.1,0.8,0.6,1.6,0.8c0,0.5,0.2,1.7-1.1,1.8
			c-0.2,0-1.1-0.4-1.3-0.6c-0.4-0.3-0.5,0.1-0.5,0.2s0.3,0.7,1,1.3c-0.1,0.4-0.5,1.1-1.4,1c-0.6-0.1-1-0.8-1.1-1
			c-0.1-0.5-0.4-0.4-0.5-0.2c-0.1,0.1-0.1,0.8,0.2,1.6c-0.3,0.4-0.9,0.6-1.4,0.3c-0.4-0.2-0.4-1-0.4-1.2c0-0.5-0.2-0.4-0.4-0.3
			c-0.2,0.1-0.6,0.9-0.7,1.2c-0.1,0.2-1.1-0.1-1.2-0.8c-0.1-0.3,0.1-0.6,0.3-1.2c0.1-0.2,0-0.3-0.1-0.3c-0.2,0-0.7,0.1-1,0.5
			c-0.6,0.1-0.7-0.8-0.6-1.1c0-0.4,1.1-0.4,1.1-0.6c0-0.1,0-0.2-0.1-0.3c0,0-0.1,0-0.2-0.1h-0.3c-0.2,0-0.6,0.1-0.8,0.2
			c-0.2-0.2-0.3-0.5-0.2-0.8c0.2-0.4,0.7-0.6,1-0.6c0.2,0,0.6,0.1,0.4-0.2c-0.2-0.2-0.4-0.5-1.2-0.5c-0.4,0-0.8,0.1-1.2,0.4
			c-1.2,0.7-1.5,1.5-1.7,1.9c-0.1,0.2-0.1,0.3-0.2,0.4l-0.1,0.1l0.1,0.1c0.1,0.2,0.9,0.4,1.4,0.4h0.5l-0.1,0.1
			c-0.6,1.4-0.4,2.2-0.3,2.7c0,0.2,0.1,0.3,0.1,0.4c0,0.3,0.3,0.2,0.3,0.2c0.3,0,1-0.3,1.6-0.8v0.2c0.3,1.6,1,2.3,1.4,2.8
			c0.1,0.1,0.3,0.3,0.3,0.4c0.1,0.1,0.2,0.1,0.2,0.1c0.3,0,0.8-0.9,0.8-1c0.1-0.3,0.3-0.6,0.4-1c1,1.4,1.9,1.8,2.5,2
			c0.3,0.1,0.5,0.2,0.6,0.3c0.1,0,0.3-0.2,0.3-0.4c0.1-0.4,0.2-1.2,0.1-2c0.1,0,0.2,0.1,0.3,0.1c1,0.5,1.8,0.7,2.7,0.7
			c0.4,0,0.7,0,1-0.1c0.2,0,0.4-0.1,0.5-0.1h0.1c0.1,0,0.2-0.1,0.2-0.3c0-0.3-0.3-1.6-1.2-2.5h0.3c2.2-0.2,3.2-1,3.9-1.5
			c0.2-0.2,0.4-0.3,0.6-0.4c0,0,0.1-0.1,0.2-0.1v-0.2c-0.1-0.3-1.2-1.4-2.6-1.8c0.1-0.1,0.2-0.1,0.3-0.2c1.9-1.4,2.4-2.7,2.7-3.6
			C111.7,13.5,111.9,13.2,112,13.1C111.9,13,112,13.1,112,13.1"/>
	</g>
</g>
<rect x="45.8" y="36.3" class="st6" width="87.5" height="23"/>
<text transform="matrix(1 0 0 1 45.8443 53.2028)" class="st7 st8 st9">Nautilus</text>
</svg>
