<?xml version="1.0" encoding="utf-8"?>
<!-- Generator: Adobe Illustrator 21.1.0, SVG Export Plug-In . SVG Version: 6.00 Build 0)  -->
<svg version="1.1" id="Ebene_1" xmlns="http://www.w3.org/2000/svg" xmlns:xlink="http://www.w3.org/1999/xlink" x="0px" y="0px"
	 viewBox="0 0 140.1 140.3" style="enable-background:new 0 0 140.1 140.3;" xml:space="preserve">
<style type="text/css">
	.st0{fill:url(#SVGID_1_);}
	.st1{fill:url(#SVGID_2_);}
	.st2{fill:url(#SVGID_3_);}
	.st3{fill:url(#SVGID_4_);}
	.st4{fill:url(#SVGID_5_);}
	.st5{fill:url(#SVGID_6_);}
	.st6{fill:url(#SVGID_7_);}
	.st7{fill:url(#SVGID_8_);}
	.st8{fill:url(#SVGID_9_);}
	.st9{fill:url(#SVGID_10_);}
	.st10{fill:url(#SVGID_11_);}
	.st11{fill:url(#SVGID_12_);}
	.st12{fill:url(#SVGID_13_);}
	.st13{fill:url(#SVGID_14_);}
	.st14{fill:url(#SVGID_15_);}
</style>
<g id="icon">
	
		<linearGradient id="SVGID_1_" gradientUnits="userSpaceOnUse" x1="17.2448" y1="81.4621" x2="17.2448" y2="69.2221" gradientTransform="matrix(1 0 0 -1 0 140.6441)">
		<stop  offset="0" style="stop-color:#CFD9E4"/>
		<stop  offset="0.34" style="stop-color:#AABCCD"/>
		<stop  offset="0.78" style="stop-color:#829BB4"/>
		<stop  offset="1" style="stop-color:#718EA9"/>
	</linearGradient>
	<path class="st0" d="M18.3,57l1.4,1.2l-1.5-0.5l0.2,0.8L17.6,59c0,0,0.4,0.4,0.2,0.6s-3,1.2-3,1.2L18.3,57z"/>
	
		<linearGradient id="SVGID_2_" gradientUnits="userSpaceOnUse" x1="9.4198" y1="80.3921" x2="9.4198" y2="70.5521" gradientTransform="matrix(1 0 0 -1 0 140.6441)">
		<stop  offset="0" style="stop-color:#CFD9E4"/>
		<stop  offset="0.34" style="stop-color:#AABCCD"/>
		<stop  offset="0.78" style="stop-color:#829BB4"/>
		<stop  offset="1" style="stop-color:#718EA9"/>
	</linearGradient>
	<path class="st1" d="M11.5,59.5l-0.9-1l-3.3,3c0.3-0.1,0.7-0.2,1-0.4C8.6,61,8.8,60.8,9,60.6c0.3-0.2,0.6-0.4,0.9-0.4
		c0.3,0,0.5,0.1,0.5-0.4s0.2-0.5,0.5-0.4C11.1,59.4,11.3,59.5,11.5,59.5z"/>
	
		<radialGradient id="SVGID_3_" cx="68.4598" cy="135.6321" r="88.33" gradientTransform="matrix(1 0 0 -1 0 140.6441)" gradientUnits="userSpaceOnUse">
		<stop  offset="0" style="stop-color:#FFDE0D"/>
		<stop  offset="0.57" style="stop-color:#FAB334"/>
		<stop  offset="1" style="stop-color:#E94F1D"/>
	</radialGradient>
	<path class="st2" d="M10.6,57.6l3.1,3.1l4.6-4.6l3.9,3.8l14.4-14.4l7.7,7.7l24.1-24.1l24.1,24.1l7.7-7.7l18.6,18.6l3.8-3.8l5.4,5.4
		l0,0l2.9-2.8l4.9,4.9c1.4,0.5,2.8,1,4.2,1.5c-0.4-38.7-32-69.8-70.8-69.4C33.5,0.3,3.6,27.7,0.2,63.4c2-0.6,4-1,6.1-1.5L10.6,57.6z
		"/>
	
		<linearGradient id="SVGID_4_" gradientUnits="userSpaceOnUse" x1="54.0494" y1="76.0422" x2="41.8794" y2="38.6422" gradientTransform="matrix(1 0 0 -1 0 140.6441)">
		<stop  offset="0" style="stop-color:#C7D972"/>
		<stop  offset="0.12" style="stop-color:#C4D771"/>
		<stop  offset="0.21" style="stop-color:#BCD46E"/>
		<stop  offset="0.29" style="stop-color:#ADCD67"/>
		<stop  offset="0.36" style="stop-color:#96C55D"/>
		<stop  offset="0.43" style="stop-color:#7CBB52"/>
		<stop  offset="0.49" style="stop-color:#5AB143"/>
		<stop  offset="0.53" style="stop-color:#3EAB37"/>
		<stop  offset="1" style="stop-color:#1A6D30"/>
	</linearGradient>
	<path class="st3" d="M46.4,86.4c12.3,2.3,21.3,3.4,29.1,3.4c2.8,0,5.6-0.1,8.3-0.4C63.6,83.5,43,78.8,22.3,75.1
		c23.3,2.2,46.4,6.5,68.9,13c1.8-0.4,3.5-0.8,5.3-1.3l1.7-0.5C82.2,77.6,55.7,72,25.7,72c-8.9,0-17.4,0-25.5,0.9
		c0,0.1,0.1,1.1,0,0.9c-0.5-0.5-0.3,11.6,4,16.9c2.5-0.6,12.7-5.5,21.8-5.5C32.5,85.2,39.4,85,46.4,86.4z"/>
	
		<linearGradient id="SVGID_5_" gradientUnits="userSpaceOnUse" x1="123.4808" y1="76.5274" x2="111.2908" y2="55.6574" gradientTransform="matrix(1 0 0 -1 0 140.6441)">
		<stop  offset="0" style="stop-color:#C7D972"/>
		<stop  offset="0.12" style="stop-color:#C4D771"/>
		<stop  offset="0.21" style="stop-color:#BCD46E"/>
		<stop  offset="0.29" style="stop-color:#ADCD67"/>
		<stop  offset="0.36" style="stop-color:#96C55D"/>
		<stop  offset="0.43" style="stop-color:#7CBB52"/>
		<stop  offset="0.49" style="stop-color:#5AB143"/>
		<stop  offset="0.53" style="stop-color:#3EAB37"/>
		<stop  offset="1" style="stop-color:#1A6D30"/>
	</linearGradient>
	<path class="st4" d="M138.6,87c1.8-5,1.2-9,1.5-12c-7.7-1.7-15.7-2.5-23.6-2.5c-9.7-0.1-19.3,1.2-28.6,3.8
		c4.7,1.6,9.2,3.7,13.5,6.1c6.7-2.1,19.9-5.8,31.3-6.2c-9.6,1.8-19.1,4.5-28.2,8.1c0.8,0.5,1.5,1,2.3,1.6c4.8-1.3,9.7-1.8,14.7-1.7
		C127.2,84.2,136.6,86.7,138.6,87"/>
	
		<linearGradient id="SVGID_6_" gradientUnits="userSpaceOnUse" x1="68.0698" y1="47.0621" x2="68.0698" y2="-15.8879" gradientTransform="matrix(1 0 0 -1 0 140.6441)">
		<stop  offset="0" style="stop-color:#2072B9"/>
		<stop  offset="0.34" style="stop-color:#255FA9"/>
		<stop  offset="1" style="stop-color:#2A3180"/>
	</linearGradient>
	<path class="st5" d="M70,140.3c18.7,0,35.9-7.7,49.2-20.4c-20.4-12.5-35.4-9.2-57.9-0.8c-16.5,6.1-34.6,0.9-44.4-3.1
		C30.7,131.1,49.4,140.3,70,140.3z"/>
	
		<linearGradient id="SVGID_7_" gradientUnits="userSpaceOnUse" x1="112.1148" y1="51.1821" x2="112.1148" y2="23.1621" gradientTransform="matrix(1 0 0 -1 0 140.6441)">
		<stop  offset="0" style="stop-color:#3BA9E0"/>
		<stop  offset="0.39" style="stop-color:#3196D3"/>
		<stop  offset="1" style="stop-color:#2072B9"/>
	</linearGradient>
	<path class="st6" d="M99.8,98.6c-3.7,3.3-8,6.1-12.6,8.1c1.4-0.1,2.8-0.2,4.2-0.2c9.7,0,18.8,2.8,28.7,8.9l1.5,0.9
		c6.3-6.8,11.4-14.6,15.3-23C133,91.5,118.2,82.7,99.8,98.6z"/>
	
		<linearGradient id="SVGID_8_" gradientUnits="userSpaceOnUse" x1="37.8372" y1="39.7259" x2="37.8372" y2="7.4559" gradientTransform="matrix(1 -3.000000e-02 -3.000000e-02 -1 7.3189 131.7844)">
		<stop  offset="0" style="stop-color:#3BA9E0"/>
		<stop  offset="0.39" style="stop-color:#3196D3"/>
		<stop  offset="1" style="stop-color:#2072B9"/>
	</linearGradient>
	<path class="st7" d="M66.9,114.2c5.5-2.3,10.6-4.2,15.3-5.7c-10.7,0.1-22.2-4.1-35.8-11.2C24,85.4,9.7,95.4,6.5,98
		c2.2,3.9,4.7,7.7,7.4,11.2l8.8,3.2c6.8,2.5,17.3,5.4,28.3,5C56.4,117.4,61.8,116.3,66.9,114.2z"/>
	
		<linearGradient id="SVGID_9_" gradientUnits="userSpaceOnUse" x1="86.694" y1="45.7123" x2="86.844" y2="29.1723" gradientTransform="matrix(1 5.000000e-02 6.000000e-02 -0.89 -15.6577 125.8278)">
		<stop  offset="0" style="stop-color:#2072B9"/>
		<stop  offset="0.34" style="stop-color:#255FA9"/>
		<stop  offset="1" style="stop-color:#2A3180"/>
	</linearGradient>
	<path class="st8" d="M104.9,91.3c-11.4,8.4-17.6,13.5-29.1,12.9c-8.4-0.4-28.5-8-33.5-13.1c7.8-3,25.8,4.1,38.4,3.3
		C84.8,94.2,95.8,88.9,104.9,91.3z"/>
	
		<linearGradient id="SVGID_10_" gradientUnits="userSpaceOnUse" x1="33.5198" y1="84.9321" x2="33.5198" y2="41.5821" gradientTransform="matrix(1 0 0 -1 0 140.6441)">
		<stop  offset="0" style="stop-color:#CFD9E4"/>
		<stop  offset="0.34" style="stop-color:#AABCCD"/>
		<stop  offset="0.78" style="stop-color:#829BB4"/>
		<stop  offset="1" style="stop-color:#718EA9"/>
	</linearGradient>
	<path class="st9" d="M30.2,54.6c0,0,1.5-1.5,2.5-2.3c0.8-0.6,1.5-1.3,2.1-2c0.7-0.7,1.4-1.5,2-2.3l5,5.4l-5.1-2.6
		c0.2,0.6,0.4,1.2,0.5,1.8c0,0.5-1.3-0.2-1.5,1.1s-2,2.3-2,2.3s-2.3,0-2.4,1.5s-2.4,3.8-2.4,3.8l1-4.9l-4.7,3.1L30.2,54.6z"/>
	
		<linearGradient id="SVGID_11_" gradientUnits="userSpaceOnUse" x1="64.7498" y1="91.9221" x2="64.7498" y2="4.1721" gradientTransform="matrix(1 0 0 -1 0 140.6441)">
		<stop  offset="0" style="stop-color:#CFD9E4"/>
		<stop  offset="0.34" style="stop-color:#AABCCD"/>
		<stop  offset="0.78" style="stop-color:#829BB4"/>
		<stop  offset="1" style="stop-color:#718EA9"/>
	</linearGradient>
	<path class="st10" d="M85.1,50.2l-6.4-5.5c0,0-2.6-3.4-3.1-4.1s-3.1-3.8-3.6-3.9c-1.2-1.1-2.3-2.2-3.3-3.4l-5.5,5.5
		c0,0-5.2,4.2-6.4,5.2c-1.5,1.3-3,2.7-4.2,4.2c-1,1.3-4.6,4.9-4.6,4.9l5.9-3.9c-0.7,1.4-1.4,2.7-2.3,3.9c-0.7,0.7-0.5,1.5-3.1,3.4
		S44.4,60,44.4,60l7.3-3.6c1.3-0.7,2.5-1.7,3.3-2.9c0.8-1.6,3.6-1.3,3.8-0.7s0.8,4.6,0.8,4.6l2.4-6.7l2-5.7c0,0,2-2.1,2.9-3.3
		c0.9-1.3,1.8-2.8,2.4-4.2l3.3,5.5l-2.9-1.4c0,0,2.4,4.2,2.9,4.7s7.3,3.8,8.3,4.6s-6-6.2-4.7-5.4S85.1,50.2,85.1,50.2z"/>
	
		<linearGradient id="SVGID_12_" gradientUnits="userSpaceOnUse" x1="98.0248" y1="82.2421" x2="98.0248" y2="25.5221" gradientTransform="matrix(1 0 0 -1 0 140.6441)">
		<stop  offset="0" style="stop-color:#CFD9E4"/>
		<stop  offset="0.34" style="stop-color:#AABCCD"/>
		<stop  offset="0.78" style="stop-color:#829BB4"/>
		<stop  offset="1" style="stop-color:#718EA9"/>
	</linearGradient>
	<path class="st11" d="M92.4,57.4l2.1-3.8c0.8-0.5,1.6-1.1,2.3-1.6c0.9-0.7,1.7-1.4,2.4-2.3l1-1.3l6.4,6c0.4,1,0.9,1.8,1.6,2.6
		c1.1,1.3,4.4,4.4,4.4,4.4l-7.2-5.7l-5.1-4.2l-2.3,2.1c0.4,0.3,0.8,0.6,1.1,1c0.5,0.5,0.3,1,1.3,2.3s2.4,2.9,2.8,3.4
		s-5.7-4.4-5.7-4.4L96,55.1l0.5,1.8l-2.1,2.4l-1.2,1.8l-2.3,2.3l-2.8-0.2l-4.7,2.5l8.3-5.7L92.4,57.4z"/>
	
		<linearGradient id="SVGID_13_" gradientUnits="userSpaceOnUse" x1="42.9248" y1="82.8721" x2="42.9248" y2="58.7921" gradientTransform="matrix(1 0 0 -1 0 140.6441)">
		<stop  offset="0" style="stop-color:#CFD9E4"/>
		<stop  offset="0.34" style="stop-color:#AABCCD"/>
		<stop  offset="0.78" style="stop-color:#829BB4"/>
		<stop  offset="1" style="stop-color:#718EA9"/>
	</linearGradient>
	<path class="st12" d="M38.5,60.9l1.3-2c0,0,0.1-0.4,1.1-1c0.8-0.4,1.6-0.8,2.4-1.4c1-0.8,2.2-1.7,2.2-1.7l2-1.3L46,56.9
		c0,0-1.3,1.1-1.8,1.5s-2.8,1.3-3.2,1.5C40.2,60.3,39.3,60.6,38.5,60.9z"/>
	
		<linearGradient id="SVGID_14_" gradientUnits="userSpaceOnUse" x1="123.9448" y1="76.9121" x2="123.9448" y2="64.8721" gradientTransform="matrix(1 0 0 -1 0 140.6441)">
		<stop  offset="0" style="stop-color:#CFD9E4"/>
		<stop  offset="0.34" style="stop-color:#AABCCD"/>
		<stop  offset="0.78" style="stop-color:#829BB4"/>
		<stop  offset="1" style="stop-color:#718EA9"/>
	</linearGradient>
	<path class="st13" d="M120.9,63.1l1.7-1.5l4.3,3.7c0,0-2.1-1-2.3-1.1s-0.1,0.5-0.1,0.5l-1.6-1.4l0.2-0.1l-0.9-0.8L120.9,63.1z"/>
	
		<linearGradient id="SVGID_15_" gradientUnits="userSpaceOnUse" x1="131.8348" y1="75.0121" x2="131.8348" y2="64.9821" gradientTransform="matrix(1 0 0 -1 0 140.6441)">
		<stop  offset="0" style="stop-color:#CFD9E4"/>
		<stop  offset="0.34" style="stop-color:#AABCCD"/>
		<stop  offset="0.78" style="stop-color:#829BB4"/>
		<stop  offset="1" style="stop-color:#718EA9"/>
	</linearGradient>
	<path class="st14" d="M129.5,65.3l1.5-1.5l3.2,3.1l-1.7-1l-0.2,0.2c0,0-0.6-0.8-0.7-0.9c0,0,0,0.4,0,0.3s-0.5-0.9-0.5-0.9l-0.3,0.3
		l-0.2-0.2L129.5,65.3z"/>
</g>
</svg>
