<svg width="1736" height="1144" viewBox="0 0 1736 1144" fill="none" xmlns="http://www.w3.org/2000/svg">
<rect width="1143.18" height="1735.18" transform="translate(0 1143.18) rotate(-90)" fill="#191852"/>
<path d="M644.119 1143.18C679.053 1099.25 693.999 1047.76 698.501 992.136C722.991 990.156 746.4 989.796 769.27 986.375C849.762 973.953 886.677 924.445 872.811 834.431C867.229 797.885 886.497 779.162 921.071 793.025C939.979 800.586 956.725 813.728 973.472 825.97C1008.77 851.894 1044.6 877.278 1088.72 883.939C1107.09 886.639 1127.97 885.019 1145.8 879.078C1189.38 864.676 1204.69 813.728 1178.03 772.861C1158.41 742.617 1135 714.712 1113.57 685.728C1105.29 674.386 1095.02 663.404 1090.7 650.622C1086.92 639.46 1086.56 623.798 1091.78 613.716C1099.16 599.314 1115.19 604.355 1127.97 609.216C1151.2 617.857 1173.53 628.839 1197.12 636.22C1259.97 655.843 1321.91 650.802 1381.34 623.798C1440.76 596.794 1467.05 531.803 1450.3 460.332C1429.24 371.218 1372.51 317.93 1286.08 293.266C1270.05 288.765 1254.21 283.004 1238.72 276.703C1197.66 260.141 1168.67 229.716 1155.71 188.849C1136.62 128.72 1174.61 91.8142 1231.52 90.374C1244.66 90.0139 1252.58 98.8353 1251.86 112.517C1251.68 116.478 1248.44 122.059 1245.02 123.679C1241.96 125.119 1234.94 123.499 1232.96 120.799C1219.99 104.056 1203.97 105.676 1187.58 112.697C1169.39 120.439 1163.27 136.461 1161.65 154.824C1159.49 180.208 1169.93 201.451 1186.86 218.374C1227.91 259.421 1275.45 289.485 1335.06 296.506C1364.05 299.927 1389.44 293.446 1412.13 275.443C1420.41 268.782 1429.06 262.301 1438.06 256.54C1459.13 243.218 1476.05 251.319 1475.33 276.343C1474.79 299.567 1470.11 322.791 1466.87 346.014C1450.84 457.272 1465.07 564.929 1502.89 670.245C1505.23 676.906 1505.23 687.168 1501.63 692.569C1474.61 733.795 1449.76 777.362 1417.35 813.908C1399.7 833.891 1369.81 846.673 1343.16 854.594C1295.8 868.636 1263.93 842.352 1259.79 792.845C1257.63 766.2 1254.39 739.556 1249.34 713.272C1245.02 691.309 1236.56 669.525 1211.89 663.044C1200.72 660.164 1184.52 658.723 1176.95 664.664C1168.49 671.505 1161.11 688.968 1163.81 698.87C1170.47 722.994 1181.64 746.397 1194.06 768.181C1223.23 818.949 1233.5 872.417 1214.23 928.046C1207.93 946.409 1192.8 963.511 1177.85 976.834C1160.57 992.136 1137.52 992.676 1117.71 980.074C1100.42 969.092 1086.38 953.43 1069.63 941.548C1061.89 935.967 1051.44 934.347 1042.26 930.926C1040.82 940.108 1036.68 950.009 1038.3 958.471C1050.18 1017.16 1071.61 1072.07 1112.85 1117.8C1120.41 1126.26 1127.79 1134.72 1135.18 1143.18C1128.51 1143.18 1121.67 1143.18 1115.01 1143.18C1092.86 1108.07 1070.89 1072.97 1049.1 1038.22C1056.31 1076.75 1078.27 1109.69 1098.98 1143.18C1062.79 1143.18 1026.59 1143.18 990.219 1143.18C989.859 1140.66 990.039 1137.78 989.138 1135.44C964.288 1067.57 947.001 998.977 956.905 925.345C959.426 906.262 954.024 885.559 948.442 866.476C946.461 859.275 934.576 852.074 926.293 850.634C921.971 849.914 914.228 860.715 910.086 867.556C906.485 873.677 905.585 881.418 903.604 888.62C891.539 931.826 866.869 965.492 824.192 980.074C793.039 990.696 759.726 995.736 727.133 1001.5C715.068 1003.66 704.624 1004.2 702.103 1018.96C695.08 1060.37 687.697 1101.77 680.314 1143C668.249 1143.18 656.184 1143.18 644.119 1143.18Z" fill="#F83756"/>
<path d="M1155.35 0.179673C1163.81 10.8013 1170.47 24.1234 1181.1 31.6846C1203.25 47.7072 1227.38 60.8493 1250.97 75.2515C1238 75.2515 1224.67 73.9914 1211.71 75.4316C1153.91 81.7326 1117.35 137.901 1133.38 193.89C1142.74 226.655 1162.19 252.399 1187.22 274.723C1224.13 307.668 1263.39 338.453 1296.88 374.639C1334.7 415.145 1351.81 464.833 1337.22 521.182C1321.37 582.031 1265.19 619.297 1203.97 605.615C1168.49 597.694 1134.64 582.031 1100.06 569.969C1089.98 566.369 1080.08 561.868 1069.81 559.168C1038.12 550.886 1023.35 564.929 1027.86 598.054C1032.18 628.839 1045.5 655.663 1064.95 679.427C1083.14 701.75 1102.05 723.354 1120.95 745.137C1148.14 776.462 1138.24 816.968 1099.52 831.011C1070.35 841.632 1042.44 838.752 1018.13 818.589C973.294 781.323 929.176 743.337 884.518 706.071C878.035 700.67 869.932 694.549 862.189 693.649C849.584 692.209 833.017 690.588 824.734 697.25C817.351 703.19 818.791 720.113 816.81 730.735C796.102 716.513 789.259 692.569 801.324 665.745C814.649 636.04 847.603 617.677 877.135 628.479C906.487 639.1 934.038 655.123 962.309 668.625C970.232 672.406 977.795 678.166 985.899 679.247C994.362 680.507 1005.71 679.787 1011.29 674.926C1015.97 670.785 1016.33 658.723 1014.53 651.162C1012.19 640.901 1004.27 632.079 1001.74 621.818C997.783 605.255 992.921 587.792 994.722 571.41C997.603 547.106 1014.35 536.844 1038.3 542.785C1060.27 548.186 1081.34 557.367 1103.13 563.668C1133.2 572.49 1163.27 585.092 1193.88 587.252C1260.51 591.933 1298.68 541.885 1285.72 476.175C1274.92 420.726 1242.14 380.4 1201.45 345.474C1148.14 299.747 1092.68 256.18 1039.02 210.813C1007.69 184.349 980.496 154.104 963.029 115.938C946.823 80.2924 954.566 49.6875 979.956 21.7831C986.259 14.942 992.021 7.5609 998.144 0.359765C1050.72 0.179737 1102.95 0.179672 1155.35 0.179673Z" fill="#F83756"/>
<path d="M2.20471e-06 24.3043C2.30132e-06 16.203 2.39578e-06 8.28175 2.49238e-06 0.180475C32.233 0.180475 64.466 0.180476 96.699 0.180476C108.044 8.28175 118.848 17.4633 131.093 24.1243C189.076 55.6293 263.266 44.8275 302.162 0.180479C374.551 0.18048 447.12 0.18048 519.51 0.180481C517.709 44.8275 511.406 89.2945 486.016 126.56C437.216 198.212 365.187 217.835 283.254 205.953C208.704 195.151 146.219 156.805 89.136 110.538C56.903 84.7939 29.5319 53.2889 2.20471e-06 24.3043Z" fill="#F83756"/>
<path d="M4.07895e-06 801.126C52.4011 748.558 117.227 745.677 184.935 755.399C233.914 762.42 282.894 769.801 331.874 776.102C363.927 780.243 394.359 773.942 426.052 754.499C424.971 826.15 411.286 887.539 359.605 936.327C342.138 952.71 323.23 962.251 300.001 957.57C287.216 954.87 272.81 949.649 263.626 940.828C240.577 918.684 225.811 914.724 206.543 930.746C182.954 950.549 177.912 977.554 196.999 998.977C209.785 1013.56 211.225 1023.1 196.999 1037.68C179.532 1055.69 184.935 1076.39 209.064 1085.03C224.371 1090.43 241.477 1091.51 258.044 1093.49C291.718 1097.45 320.709 1108.25 334.035 1143.18C318.008 1143.18 301.802 1143.18 285.775 1143.18C276.952 1135.62 269.389 1125 259.125 1121.04C234.455 1111.13 208.344 1104.47 183.314 1095.65C151.441 1084.49 144.058 1060.55 166.027 1035.7C180.613 1019.14 178.092 1004.02 168.188 988.355C159.364 974.313 148.92 961.171 139.376 947.489C126.951 929.666 125.691 907.163 137.215 890.96C149.46 873.677 166.207 870.977 185.295 878.538C187.996 879.618 191.417 879.258 195.379 879.438C178.992 852.434 134.874 832.991 108.044 842.892C93.8179 848.113 77.9715 857.295 69.8682 869.357C52.7613 895.281 45.1982 925.705 49.3399 957.39C59.2439 1034.08 96.699 1095.29 157.023 1143.18C148.92 1143.18 140.997 1143.18 132.894 1143.18C125.511 1136.7 118.848 1128.96 110.565 1124.1C84.9943 1108.97 68.2475 1085.57 58.8838 1059.29C48.0794 1028.68 40.6964 996.097 36.9149 963.871C33.8537 937.767 34.754 910.043 40.1562 884.299C52.5812 826.33 106.243 801.486 159.184 828.85C187.456 843.432 213.566 862.696 240.217 880.338C261.105 894.2 283.434 903.562 307.924 893.48C333.675 882.679 345.199 860.355 348.261 833.171C349.881 819.669 346.82 814.268 330.974 815.528C314.947 816.968 297.48 815.708 282.354 810.667C250.841 800.226 221.309 782.043 189.256 775.202C159.905 768.901 127.852 770.161 97.7795 773.942C48.6196 780.063 16.3866 810.487 3.407e-06 857.475C3.63241e-06 838.572 3.85568e-06 819.849 4.07895e-06 801.126Z" fill="#F83756"/>
<path d="M849.403 0.179569C845.981 41.226 862.728 76.8717 884.877 108.737C929.355 172.827 988.599 221.795 1053.6 264.281C1064.59 271.482 1081.7 285.345 1080.08 292.186C1076.83 304.788 1063.87 318.11 1051.44 324.591C983.377 360.056 916.03 346.734 857.686 305.688C788.538 257.08 729.654 196.051 684.996 123.139C670.05 98.6552 657.445 72.7311 642.139 48.4273C637.457 40.8661 628.093 32.4047 620.17 31.5045C614.228 30.9645 604.504 40.866 601.082 48.2472C584.336 83.1727 571.911 120.439 552.823 153.924C511.766 225.575 448.381 265.901 365.728 272.923C296.039 278.864 226.711 273.823 164.586 238.717C124.07 215.674 87.6954 185.429 48.4395 159.685C33.6736 149.963 16.2065 144.382 2.48132e-06 137.001C2.64233e-06 123.499 2.80119e-06 110.177 2.9622e-06 96.6748C19.808 113.597 39.2558 131.06 59.604 147.263C132.353 204.872 212.486 247.719 305.583 261.401C389.677 273.823 461.526 250.779 518.249 185.609C564.708 132.32 575.692 66.6101 583.615 -0.000418349C609.186 -0.000418044 634.576 -0.000417741 660.146 -0.000417436C661.407 44.8266 677.793 84.7929 700.843 122.059C737.217 180.928 787.998 226.295 843.46 266.802C880.915 294.166 921.252 313.609 968.431 316.85C988.779 318.29 1006.97 313.969 1021.37 298.667C1032.72 286.425 1032.72 274.183 1018.85 264.641C1006.79 256.18 993.641 249.699 980.676 242.498C884.877 188.669 822.212 110.897 804.925 0.179569C819.871 0.179569 834.637 0.179569 849.403 0.179569Z" fill="#F83756"/>
<path d="M1.38899e-06 603.815C10.4442 577.17 20.1681 550.166 31.5127 523.882C44.658 493.457 56.7229 461.952 74.1899 433.868C91.1168 406.684 119.208 395.342 153.962 401.643C131.273 434.588 135.054 469.694 141.717 504.619C149.46 545.485 157.023 585.812 139.376 626.678C123.53 663.404 98.4997 689.148 61.4048 702.65C41.4167 709.851 20.5283 714.532 0 720.293C4.59419e-07 681.767 9.23131e-07 642.881 1.38899e-06 603.815Z" fill="#F83756"/>
<path d="M1654.51 0.179812C1627.5 68.2305 1581.22 119.179 1511.89 142.582C1487.4 150.864 1454.99 147.443 1429.96 138.622C1394.84 126.38 1363.15 103.876 1329.84 82.2728C1386.92 80.8326 1414.83 46.4471 1433.2 0.179809C1506.85 0.17981 1580.68 0.179811 1654.51 0.179812Z" fill="#F83756"/>
<path d="M957.986 1143.18C869.39 1143.18 780.795 1143.18 692.379 1143.18C693.639 1134.72 694.18 1125.9 696.16 1117.62C701.563 1093.49 708.585 1069.73 712.547 1045.42C714.708 1031.92 719.93 1026.52 733.075 1023.1C763.328 1015.36 794.66 1008.52 822.751 995.196C848.682 982.774 867.409 987.635 884.877 1006.18C894.781 1016.62 903.604 1029.04 910.087 1041.82C926.833 1075.13 942.14 1109.33 957.986 1143.18Z" fill="#F83756"/>
<path d="M1735 801.127C1727.08 799.507 1719.33 797.346 1711.41 796.266C1615.79 782.764 1556.55 726.595 1519.63 639.462C1484.88 557.369 1494.6 481.577 1540.34 407.765C1557.27 380.581 1578.7 357.897 1606.61 341.875C1646.04 319.371 1678.28 337.554 1678.64 382.741C1678.82 394.803 1677.2 407.045 1678.28 418.927C1679.36 429.729 1682.96 440.35 1685.48 451.512C1665.31 460.513 1641.72 448.991 1632 422.707C1628.94 414.606 1627.86 405.785 1625.52 397.503C1619.39 374.82 1605.53 365.998 1585.18 377.7C1568.07 387.602 1550.42 402.004 1541.06 418.927C1495.5 501.56 1521.79 606.516 1597.24 662.865C1638.66 693.83 1685.3 710.213 1734.82 720.474C1735 747.479 1735 774.303 1735 801.127Z" fill="#F83756"/>
<path d="M4.91984e-06 318.11C34.574 318.29 69.328 316.13 103.722 319.37C180.433 326.392 256.243 326.572 330.793 304.788C332.414 304.248 334.395 304.428 337.096 304.248C283.434 351.956 271.73 398.943 294.239 466.994C303.242 494.178 314.587 521.542 317.828 549.807C330.073 659.264 255.523 734.156 141.717 730.555C215.007 705.711 243.998 650.083 260.745 586.713C266.688 564.029 266.508 538.825 265.247 515.061C262.186 460.693 257.864 406.684 275.691 353.756C276.412 351.596 275.871 348.715 275.871 346.195C272.81 345.475 270.829 344.214 269.209 344.574C200.601 363.837 131.273 357.717 61.5848 353.216C41.4167 351.956 20.7084 356.636 0.36015 358.437C4.59997e-06 344.935 4.75883e-06 331.612 4.91984e-06 318.11Z" fill="#F83756"/>
<path d="M1735 632.08C1705.29 634.42 1674.32 643.242 1646.22 637.661C1565.55 621.998 1525.76 523.703 1568.07 455.112C1578.52 466.634 1587.34 480.856 1599.77 489.858C1638.12 517.042 1685.84 509.841 1717.35 474.375C1723.11 467.894 1729.06 461.413 1734.82 454.932C1734.82 499.219 1734.82 543.506 1734.82 587.793C1704.93 604.356 1671.61 615.877 1641.36 598.415C1614.17 582.752 1593.1 557.008 1572.93 538.825C1575.28 569.97 1611.47 612.637 1646.4 621.998C1677.74 630.28 1705.83 618.038 1735 611.917C1735 618.578 1735 625.419 1735 632.08Z" fill="#F83756"/>
<path d="M780.975 0.180112C785.837 22.1436 787.638 45.3673 795.921 66.0706C821.312 129.441 866.87 177.148 919.811 218.555C933.497 229.356 947.002 240.518 959.427 252.58C963.569 256.54 968.251 266.262 966.45 269.142C963.209 274.003 955.106 277.784 948.803 278.324C903.245 283.005 867.05 261.401 833.557 234.577C763.688 178.768 707.506 112.698 683.916 23.7639C681.935 16.0227 681.395 7.92133 680.135 0.180111C692.2 0.180111 704.264 0.180111 716.329 0.180112C717.95 7.38124 719.751 14.4023 720.831 21.7835C732.356 91.0944 764.589 149.424 816.09 196.411C831.396 210.453 846.882 227.556 873.533 226.296C853.905 191.01 833.197 156.805 810.327 124.4C783.496 86.4137 758.466 47.8876 752.524 0.180112C762.248 0.180112 771.612 0.180112 780.975 0.180112Z" fill="#F83756"/>
<path d="M1368.73 0.180422C1375.94 18.0032 1388.72 27.7248 1408.89 25.7445C1399.16 57.6095 1350.91 79.933 1309.67 72.5518C1256.55 63.0103 1209.01 40.5068 1171.55 0.18042C1237.1 0.180421 1303.01 0.180422 1368.73 0.180422Z" fill="#F83756"/>
<path d="M1714.83 1143.18C1706.01 1079.27 1696.1 1015.54 1689.26 951.269C1688.18 940.468 1698.27 926.606 1706.37 916.884C1716.09 905.182 1726.54 912.203 1734.82 921.745C1734.82 995.556 1734.82 1069.37 1734.82 1143.18C1728.16 1143.18 1721.49 1143.18 1714.83 1143.18Z" fill="#F83756"/>
<path d="M1735 177.328C1722.94 157.885 1705.29 139.702 1700.07 118.639C1690.34 80.1128 1688.18 39.7864 1682.78 0.360227C1700.25 0.360227 1717.71 0.360227 1735.18 0.360228C1735 59.2295 1735 118.279 1735 177.328Z" fill="#F83756"/>
<path d="M39.9766 92.3554C58.524 107.478 76.8915 122.96 95.9792 137.543C157.924 184.89 225.451 219.995 304.143 229.177C396.52 239.799 477.193 214.775 519.87 124.22C538.058 85.8744 544 41.7674 555.525 0.180907C556.785 0.180907 558.226 0.180907 559.486 0.180907C561.107 103.697 496.101 217.655 388.957 238.358C343.759 247.18 299.101 243.399 255.884 230.797C182.234 209.194 117.048 171.388 60.6849 119C52.4016 111.618 46.8193 101.357 39.9766 92.3554Z" fill="#F83756"/>
<path d="M1.05623e-06 173.188C18.7276 179.309 39.4359 182.009 55.1022 192.631C64.466 199.112 69.328 217.475 69.6881 230.617C70.0483 245.739 55.4624 251.5 41.4167 254.201C27.5511 256.721 13.8656 259.241 0 261.762C3.52078e-07 232.237 7.04155e-07 202.712 1.05623e-06 173.188Z" fill="#F83756"/>
<path d="M1735 845.414C1694.12 830.832 1653.43 816.069 1612.55 801.847C1572.76 787.985 1541.78 762.601 1516.21 729.656C1508.11 719.214 1505.41 709.853 1516.57 700.671C1534.22 719.394 1550.43 739.737 1569.51 756.48C1597.97 781.504 1631.64 797.166 1668.91 806.168C1691.42 811.569 1713.03 821.47 1735 829.392C1735 834.612 1735 840.013 1735 845.414Z" fill="#F83756"/>
<path d="M1364.59 1143.18C1379.9 1127.52 1394.66 1111.13 1410.87 1096.37C1428.88 1079.99 1442.92 1079.09 1462.37 1095.11C1496.22 1123.02 1533.5 1141.38 1577.98 1143.18C1556.55 1143.18 1535.12 1143.18 1513.51 1143.18C1492.08 1130.76 1471.55 1116.18 1448.86 1106.99C1438.6 1102.85 1422.21 1105.91 1411.77 1111.49C1398.44 1119.06 1388.36 1132.38 1376.65 1143.18C1372.69 1143.18 1368.73 1143.18 1364.59 1143.18Z" fill="#F83756"/>
<path d="M281.814 0.180177C235.535 34.2056 169.448 34.2056 132.894 0.180175C144.958 0.180176 157.023 0.180176 169.088 0.180176C198.62 15.4826 228.152 12.9622 257.684 0.180177C265.607 0.180177 273.71 0.180177 281.814 0.180177Z" fill="#F83756"/>
<path d="M44.2979 1143.18C48.7997 1126.62 53.3015 1110.05 57.2631 1095.83C76.5309 1111.13 96.5189 1127.16 116.687 1143.18C92.5573 1143.18 68.4276 1143.18 44.2979 1143.18Z" fill="#F83756"/>
<path d="M1400.79 1143.18C1414.47 1122.12 1434.82 1125.18 1454.45 1129.68C1465.25 1132.2 1474.98 1138.68 1485.24 1143.18C1457.15 1143.18 1429.06 1143.18 1400.79 1143.18Z" fill="#F83756"/>
<path d="M1642.44 1143.18C1661.53 1119.6 1672.88 1119.6 1686.74 1143.18C1671.98 1143.18 1657.21 1143.18 1642.44 1143.18Z" fill="#F83756"/>
<path d="M6.29017e-07 40.5056C13.5054 58.1484 27.0109 75.6111 40.5163 93.2539C27.0109 79.7518 13.5054 66.2497 4.83034e-07 52.7475C5.34557e-07 48.4268 5.81787e-07 44.4662 6.29017e-07 40.5056Z" fill="#F83756"/>
<path d="M1021.73 503.359C1048.02 488.237 1071.79 494.718 1095.2 509.84C1110.33 519.742 1125.99 528.923 1142.02 537.384C1166.69 550.526 1191.18 553.947 1215.13 534.144C1239.8 513.621 1245.38 488.057 1238.18 458.352C1236.2 450.611 1233.14 443.229 1230.08 433.868C1247.54 434.948 1254.03 447.55 1259.43 459.972C1282.48 513.981 1246.82 571.41 1187.94 569.789C1157.33 568.889 1126.71 557.367 1096.64 549.266C1079.9 544.765 1064.23 536.664 1047.66 531.443C1022.99 523.522 1001.38 531.803 986.798 553.587C983.557 558.628 980.856 564.029 977.615 569.249C960.688 597.514 932.236 602.555 905.946 582.211C896.402 574.83 887.038 566.369 876.234 562.228C855.705 554.487 835.357 556.647 817.53 571.23C801.504 584.372 786.377 598.954 769.451 610.476C741.179 629.739 713.628 624.878 691.479 598.414C666.089 568.349 657.445 531.443 654.564 493.817C651.863 457.992 654.024 421.806 653.844 385.62C653.844 370.138 654.744 354.656 653.124 339.353C650.062 310.008 634.756 296.146 605.945 291.826C593.159 289.845 578.934 287.145 568.85 279.944C561.287 274.543 559.486 261.401 557.865 250.419C569.57 276.883 584.876 284.805 611.887 270.942C631.155 261.041 648.802 246.999 665.369 232.776C694.54 207.752 718.85 207.752 746.581 233.856C778.634 263.921 789.799 301.187 790.699 344.214C791.239 368.698 796.822 393.182 800.963 417.485C802.044 424.146 806.005 430.267 808.706 436.568C810.687 436.388 812.488 436.028 814.469 435.848C815.549 427.027 816.269 418.386 817.53 409.744C820.951 384.9 831.576 363.657 856.606 355.916C879.475 348.895 903.065 348.895 921.792 368.878C939.259 387.601 940.52 407.944 925.574 435.308C915.67 453.311 902.704 470.774 915.129 493.457C916.03 495.078 908.827 504.439 903.965 505.699C883.437 511.64 864.709 494.177 864.529 469.694C864.529 458.352 866.51 447.01 866.87 435.668C867.41 423.606 865.249 411.545 850.483 409.924C835.537 408.304 824.553 414.965 820.051 430.267C812.308 456.372 824.913 493.817 846.882 509.66C900.183 548.186 960.328 525.322 974.914 460.872C977.254 450.431 978.155 439.629 979.235 429.007C982.657 398.402 993.101 372.838 1026.05 363.477C1057.93 354.475 1089.08 365.097 1108.71 394.442C1123.11 416.045 1142.2 427.927 1166.15 435.128C1177.86 438.729 1190.46 444.13 1199.1 452.591C1212.61 465.373 1212.25 486.076 1202.17 500.479C1191.36 515.601 1172.45 520.642 1149.76 512.36C1130.32 505.339 1111.59 496.158 1092.14 488.777C1060.45 476.715 1039.74 480.855 1021.73 503.359Z" fill="#F83756"/>
<path d="M308.645 716.514C350.962 691.13 364.647 651.884 363.927 605.256C363.027 545.307 353.483 486.798 337.996 428.828C332.414 408.305 329.893 384.001 335.295 364.018C347.18 319.731 376.172 302.268 422.811 302.629C456.124 302.809 491.778 342.235 497.901 381.841C507.085 439.99 503.483 498.139 493.939 555.928C484.395 613.357 472.691 670.787 478.093 729.476C486.016 813.549 547.601 883.4 628.634 906.264C659.606 914.905 688.958 916.345 719.21 906.264C765.669 890.781 781.875 836.593 746.941 802.387C721.911 777.723 692.92 755.94 662.487 738.117C610.446 707.872 588.658 664.305 587.217 605.796C585.596 542.966 582.535 479.956 575.872 417.487C572.271 384.001 562.727 349.976 536.617 324.772C528.693 317.031 518.789 311.45 506.544 302.448C545.62 311.63 562.007 338.994 569.39 369.419C582.895 424.508 593.159 480.677 602.163 536.665C609.906 584.553 615.488 632.981 650.242 670.246C663.208 684.109 680.675 693.65 696.521 704.632C731.635 728.756 769.27 749.819 801.684 777.003C836.978 806.528 847.422 849.015 833.376 892.221C818.61 937.048 782.956 960.272 735.777 963.513C664.108 968.373 596.401 953.431 537.697 911.484C488.897 876.559 470.35 823.451 462.066 766.021C453.243 704.092 461.346 643.242 473.231 582.573C485.116 522.623 484.936 462.854 470.89 403.084C464.948 377.88 450.722 361.498 425.692 354.477C405.524 348.716 389.497 355.017 386.076 375.72C383.195 393.363 384.095 412.986 388.417 430.449C400.662 479.776 416.148 528.384 417.048 579.872C417.769 626.32 406.964 668.266 368.429 697.251C352.222 709.493 331.154 715.254 312.246 723.895C310.985 721.374 309.905 719.034 308.645 716.514Z" fill="#F83756"/>
<path d="M1070.17 983.315C1138.42 1030.12 1192.26 1029.94 1259.43 986.555C1296.34 962.611 1332.36 935.967 1372.15 918.144C1432.66 890.96 1496.58 888.62 1559.79 913.284C1610.03 932.907 1633.8 974.673 1622.09 1022.56C1614.71 1052.99 1583.92 1066.67 1558.17 1048.3C1542.68 1037.32 1528.28 1022.74 1518.37 1006.72C1487.58 956.31 1429.24 944.248 1383.86 967.832C1353.79 983.495 1324.61 1001.68 1295.8 1019.68C1244.12 1051.91 1190.46 1069.55 1130.32 1045.06C1103.49 1033.9 1083.32 1015.36 1070.17 983.315Z" fill="#F83756"/>
<path d="M541.119 415.145C555.885 447.91 557.146 482.656 553.904 518.121C549.403 566.729 544.361 615.157 556.605 663.764C567.23 706.251 592.08 738.116 622.872 766.74C639.439 782.223 658.166 795.365 675.633 809.767C688.779 820.749 698.143 834.251 690.219 851.714C682.296 869.537 665.369 871.157 648.803 868.456C595.681 859.455 557.866 828.31 530.315 783.663C502.043 737.936 497.902 686.988 505.105 636.04C512.668 581.851 526.713 528.743 536.617 474.914C540.219 455.471 539.679 435.128 541.119 415.145Z" fill="#F83756"/>
</svg>
